<?xml version="1.0" encoding="utf-8"?>
<!-- Generator: Adobe Illustrator 19.1.0, SVG Export Plug-In . SVG Version: 6.00 Build 0)  -->
<svg version="1.1" id="Layer_1" xmlns="http://www.w3.org/2000/svg" xmlns:xlink="http://www.w3.org/1999/xlink" x="0px" y="0px"
	 viewBox="0 0 560 560" style="enable-background:new 0 0 560 560;" xml:space="preserve">
<style type="text/css">
	.st0{fill:url(#XMLID_2_);}
	.st1{fill:url(#XMLID_3_);}
	.st2{opacity:0.28;fill:url(#XMLID_4_);}
</style>

<g>
	<g id="XMLID_167_">
		
			<linearGradient id="XMLID_2_" gradientUnits="userSpaceOnUse" x1="10354.7178" y1="4789.9395" x2="10009.8018" y2="5134.8555" gradientTransform="matrix(0 -1 1 0 -4682.3975 10462.2598)">
			<stop  offset="0" style="stop-color:#C5D82D"/>
			<stop  offset="0.1897" style="stop-color:#C2D62D"/>
			<stop  offset="0.3354" style="stop-color:#B8CF2C"/>
			<stop  offset="0.4665" style="stop-color:#A8C42B"/>
			<stop  offset="0.5891" style="stop-color:#91B42A"/>
			<stop  offset="0.7057" style="stop-color:#739F28"/>
			<stop  offset="0.8177" style="stop-color:#4E8625"/>
			<stop  offset="0.9242" style="stop-color:#236822"/>
			<stop  offset="1" style="stop-color:#005020"/>
		</linearGradient>
		<path id="XMLID_170_" class="st0" d="M318.9,413.3c26,12.6,44,39.3,44,70.1c0,29.9-16.8,55.8-41.4,68.9l36.6-18.7
			c60.2-30.1,101.6-92.3,101.6-164.1c0-70.8-40.2-132.3-99-162.8l-119.5-59.9c-26-12.6-44-39.3-44-70.1c0-29.8,16.8-55.8,41.4-68.8
			L202,26.4c-60.2,30.1-101.6,92.3-101.6,164.1c0,70.8,40.2,132.3,99,162.8L318.9,413.3z"/>
		<linearGradient id="XMLID_3_" gradientUnits="userSpaceOnUse" x1="361.6556" y1="195.5962" x2="195.5927" y2="361.6591">
			<stop  offset="0" style="stop-color:#8BC53F"/>
			<stop  offset="0.2181" style="stop-color:#88C23E"/>
			<stop  offset="0.3856" style="stop-color:#7EBA3C"/>
			<stop  offset="0.5362" style="stop-color:#6EAC38"/>
			<stop  offset="0.6769" style="stop-color:#579933"/>
			<stop  offset="0.8108" style="stop-color:#39802D"/>
			<stop  offset="0.9378" style="stop-color:#156125"/>
			<stop  offset="1" style="stop-color:#005020"/>
		</linearGradient>
		<path id="XMLID_169_" class="st1" d="M360.6,206.6l-113.4-56.8l-9.2,16.5c-20.5,37.8-61.3,62.6-107.1,60.5
			c-9.6-0.4-18.9-2-27.8-4.7c9.9,57.2,46.4,105.4,96.2,131.3l24.9,12.5c21.9,6.9,45.1,11.1,69.2,12.2
			c59.9,2.7,116.1-14.1,162.5-44.8C444.9,278.1,409.1,231.8,360.6,206.6z"/>
		<linearGradient id="XMLID_4_" gradientUnits="userSpaceOnUse" x1="444.6006" y1="461.684" x2="160.8153" y2="167.8158">
			<stop  offset="0" style="stop-color:#8BC53F"/>
			<stop  offset="0.2181" style="stop-color:#88C23E"/>
			<stop  offset="0.3856" style="stop-color:#7EBA3C"/>
			<stop  offset="0.5362" style="stop-color:#6EAC38"/>
			<stop  offset="0.6769" style="stop-color:#579933"/>
			<stop  offset="0.8108" style="stop-color:#39802D"/>
			<stop  offset="0.9378" style="stop-color:#156125"/>
			<stop  offset="1" style="stop-color:#005020"/>
		</linearGradient>
		<path id="XMLID_168_" class="st2" d="M459.6,369.4c0-70.8-40.2-132.3-99-162.8l-119.5-59.9c-12.5-6-23.1-15.3-30.8-26.8
			c-31.9,79.8-29.5,165,0.4,239.1l108.1,54.2c26,12.6,44,39.3,44,70.1c0,20.6-8,39.3-21.1,53.3l3.1,3.6l13.1-6.7
			C418.2,503.5,459.6,441.3,459.6,369.4z"/>
	</g>
</g>
</svg>